<?xml version="1.0" encoding="utf-8"?>
<!-- Generator: Adobe Illustrator 21.0.2, SVG Export Plug-In . SVG Version: 6.00 Build 0)  -->
<svg version="1.1" id="Layer_1" xmlns="http://www.w3.org/2000/svg" xmlns:xlink="http://www.w3.org/1999/xlink" x="0px" y="0px"
	 viewBox="0 0 380 66" style="enable-background:new 0 0 380 66;" xml:space="preserve">
<style type="text/css">
	.st0{fill:#CD8C5D;}
	.st1{fill:#3C8476;}
	.st2{fill:#FFFFFF;}
	.st3{fill:#F287B7;}
	.st4{fill:#FDB913;}
	.st5{fill:#A54686;}
	.st6{fill:#ED1C24;}
	.st7{fill:#0066B3;}
	.st8{fill:#00AEEF;}
	.st9{fill:#F58220;}
	.st10{fill:#2E3192;}
	.st11{fill:#009776;}
	.st12{fill:#7670B3;}
	.st13{fill:#806B64;}
	.st14{fill:#0095DA;}
</style>
<g>
	<path class="st0" d="M112.9,9.6c-0.1,1.6,1,3,2.5,3.1l1.2,0.1c0.7,0.1,1.3,0.9,1.3,1.6c0,0.9-0.7,1.5-1.6,1.5l-12-1.2
		c-0.6,0-1.2-0.7-1.2-1.6c0-0.9,0.7-1.5,1.6-1.5l1.2,0.1c1.5,0.1,3-1,3-2.5c0.1-1,1-1.8,2.1-1.6C112.2,7.8,113.1,8.7,112.9,9.6"/>
	<polygon class="st0" points="86.6,51.7 125.9,55.4 125.8,58.8 86.3,55.1 	"/>
	<polygon class="st0" points="87.5,59.9 108.9,13 112.5,13.3 90.5,61.5 	"/>
	<polygon class="st0" points="111.3,13.2 123.1,63.6 120,64.4 107.9,12.9 	"/>
	<polygon class="st0" points="104.1,65.3 108.2,13.6 111.5,13.9 107.3,65.6 	"/>
	<path class="st1" d="M119.3,57.3c-2.2-0.1-3.7-1.2-4.7-2.8c-0.4-0.7-0.9-2.7-1.5-5.5l-11.8-1c-1,2.7-1.9,4.3-2.4,5
		c-1.2,1.6-2.8,2.2-5,2.1c-1.6-0.1-3-0.7-4-1.9c-1-1.2-1.5-2.7-1.3-4.1c0-0.7,0.3-1.5,0.7-2.4l13.2-27.8c1.6-3.4,4-5,7.4-5
		c1.6,0,3.3,0.6,4.6,1.6c1.5,1.2,2.4,2.8,3,4.7l7.8,29.6c0.3,1,0.4,1.9,0.3,2.7c-0.1,1.6-0.7,3-2.1,3.8
		C122.2,57,120.9,57.5,119.3,57.3"/>
	<path class="st2" d="M113.2,26.3c-0.1,0.1-0.3,0.3-0.4,0.4c0,0.1,0,0.1,0,0.3c0,0-0.1,0-0.1,0.1c-0.4,0-0.4,0.3-0.7,0.4
		c-0.3-0.4-1-0.3-1.5-0.1c0,0.1-0.1,0.3-0.3,0.4c0,0.1,0,0.3-0.1,0.3c0,0.1,0.1,0.3,0,0.4c0.3,0.1,0.4,0.3,0.4,0.4
		c0,0-0.1,0-0.3,0.1c0,0.3-0.3,0.4-0.6,0.4c-0.1-0.1,0.1-0.4,0.1-0.6c-0.3-0.1-0.4,0.3-0.6,0.6c-0.3-0.1-0.3-0.3-0.1-0.4
		c-0.1,0-0.1-0.1-0.3-0.1c-0.1,0.1-0.1,0.3-0.3,0.6c-0.1,0.1-0.3,0.1-0.4,0c0,0,0.1,0,0.1-0.1c-0.1-0.1-0.1-0.3-0.3-0.4
		c-0.3,0-0.3,0.4-0.6,0.4c-0.1-0.1-0.3-0.3-0.6-0.1c-0.1,0.1,0,0.3,0,0.3c-0.1,0.1-0.3,0.3-0.6,0.3c-0.1-0.4,0.3-0.3,0.4-0.6
		c0-0.1-0.1-0.1-0.3-0.1c-0.1-0.3,0.3-0.4,0.1-0.7c-0.3-0.1-0.4-0.6-0.3-0.9c-0.1-0.1-0.3-0.3-0.6-0.4c-0.1,0,0-0.1,0-0.1
		c-0.1,0,0-0.1,0-0.3c-0.1-0.1-0.1,0-0.3,0c-0.1,0,0-0.1-0.1-0.3c-0.1,0-0.3,0-0.4-0.1c-0.1,0-0.1,0.1-0.3,0.1
		c-0.1-0.3-0.6-0.3-0.9,0c-0.3-0.1-0.3-0.3-0.6-0.4c-0.1,0.3,0.1,0.3,0.1,0.4c-0.1,0.1-0.4,0.1-0.7,0.3c-0.1,0-0.3-0.1-0.4-0.1
		c0,0,0,0.1,0,0c0,0.1,0.1,0.1,0.1,0.3c-0.1,0-0.1,0.1-0.1,0.3c-0.1,0-0.3-0.1-0.4,0c0,0.1,0.3,0.1,0.3,0.3
		c-0.1,0.3-0.3,0.4-0.4,0.6c0.1,0.1,0.1,0.4,0.1,0.6c0,0.1-0.1,0.1-0.3,0.1c0,0.3,0.1,0.6,0.4,0.6c0.1,0.1,0.1,0.3,0.1,0.6
		c0.1,0.1,0.3,0.3,0.3,0.4c0.1-0.1,0.4,0.1,0.6,0.3c0.1,0,0.4-0.1,0.7,0.1c0,0.1,0,0.3,0,0.4c0.3,0,0.3-0.4,0.6-0.3
		c0.1,0,0.1,0.1,0.3,0.1c0.1-0.1,0.1-0.4,0.4-0.3c0,0.3-0.3,0.6-0.4,0.6c-0.1-0.1-0.3-0.1-0.4-0.1c0,0.3,0.1,0.3,0.1,0.6
		c-0.1,0.3-0.4,0-0.6,0v-0.1c-0.1,0.1-0.1,0.3-0.1,0.4c0.1,0,0.1,0.1,0.3,0.3c0.3,0.6-0.3,1.3-0.7,1.5c0,0,0,0.1,0,0.3
		c0.1,0.1,0.3,0.1,0.6,0.3c0.1,0.1,0.1,0.3,0.1,0.6c-0.1,0.1-0.4,0-0.6,0.3c0.1,0.1,0.3,0.1,0.4,0.1c0.3,0.3-0.1,0.3-0.3,0.6
		c0,0,0,0.1,0.1,0.1c0.3-0.1,0.6,0,0.7,0.3c-0.1,0.3-0.4,0.1-0.4,0.4c0.1,0.1,0.4,0,0.6,0.1c0.3,0.1,0.1,0.3,0.1,0.6
		c0,0.1-0.1,0-0.1,0.1c0.1,0.3,0.6,0.4,0.4,0.6c0.3-0.1,0.7,0,0.9,0.3l0.1,0.1c0,0.1,0,0.1,0.1,0.3v0.1c0,0.1,0.1,0.1,0.1,0.1
		c0.3-0.6,1.2-0.1,1.2,0.3c0.3,0,0.4-0.1,0.6-0.1c0.4,0.3,0.7-0.3,1.2,0.1c0.1,0.1,0,0.3,0.1,0.3c0-0.1,0.1-0.1,0.1-0.3
		c0.1,0,0,0.1,0,0.1c0.1,0,0-0.3,0-0.3c0.1-0.3,1.2-0.1,1,0.3c0.3,0,0-0.3,0.1-0.4c0.1-0.3,0.4-0.4,0.7-0.6c0.4,0.1,0.6,0.3,0.7,0.6
		c0.3-0.3-0.3-0.6-0.3-0.9c0.3-0.4,1-0.7,1.6-0.3c0.1-0.4-0.3-0.4-0.3-0.7c0.3-0.9,1-0.6,1.3-1.3c0.1,0,0.3,0.1,0.4,0
		c-0.3,0-0.7-0.3-0.9-0.4c-0.1-0.4,0.3-0.4,0.4-0.7c-0.1-0.3-0.7-0.4-0.4-0.9c-0.3-0.3,0.1-0.6,0.4-0.4c0.1-0.3,0-0.3,0-0.4
		c-0.7-0.3-0.9-1-0.7-1.8c-0.1-0.3-0.4-0.1-0.6-0.4c0.3-0.6,0.1-1,0.3-1.6c-0.1-0.1-0.3-0.3-0.3-0.4c-0.1,0-0.3-0.1-0.4-0.1
		c0,0,0-0.1,0-0.3c-0.1,0-0.1,0.1-0.1,0.1c-0.1,0-0.1-0.1-0.3-0.1c0,0,0.1-0.1,0.1-0.3c0.3,0.1,0.4,0.3,0.7,0.4c0.1,0,0.3,0,0.6,0.1
		v-0.1c0.3-0.1,0.6-0.4,0.9-0.6c0-0.1-0.1,0-0.1,0c0-0.1,0-0.3,0-0.4c0.4-0.3,0.3-0.7,0.3-1.2C114.3,26.3,113.7,26.3,113.2,26.3"/>
	<path class="st3" d="M52.6,25.6l-3.4-0.3l-0.4,5.5l3.4,0.3c1.9,0.1,3-0.6,3.3-2.5C55.6,26.8,54.7,25.7,52.6,25.6 M58.5,39.9
		l6.1,7.7c0.9,1,1.2,2.2,1.2,3.5c0,1.6-0.6,3.1-1.9,4.3c-1.2,1.2-2.8,1.8-4.6,1.6c-1.9-0.1-3.4-1-4.4-2.5l-7.7-11.1
		c-0.1,2.1-0.3,4.1-0.4,6.4c0,1.8-0.7,3.3-1.9,4.3c-1,0.9-2.4,1.3-4,1.3c-1.8,0-3.3-0.6-4.3-1.6c-1.3-1.2-1.8-3-1.6-4.9l2.8-29.9
		c0.1-1.8,0.9-3.3,2.1-4.3c1.2-1,2.7-1.5,4.6-1.3l9.3,0.7c4.3,0.4,7.7,1.6,10.2,3.8c2.5,2.4,3.8,5.5,3.8,9.6c0,0.6,0,1.2-0.1,1.8
		C67.1,34.9,64.2,38.4,58.5,39.9z"/>
	<path class="st4" d="M290.1,54.7c-1.6,0.1-3.1-0.1-4.4-1.2c-1.3-1-2.1-2.4-2.2-4.3l-1.2-9.5l-12.6,1.5l1.2,9.5c0,0.3,0,0.7,0,0.9
		c0,1.8-0.6,3.3-1.8,4.3s-2.7,1.6-4.3,1.6c-1.5,0-2.7-0.4-3.8-1.3c-1.2-1-1.9-2.4-2.1-4.1l-3.5-29.7c0-0.3,0-0.6,0-0.9
		c0-1.8,0.6-3.3,1.9-4.4c1.2-1,2.5-1.5,4.1-1.5c1.5,0,2.7,0.4,3.8,1.3c1.2,0.9,1.9,2.4,2.1,4.1l1.2,9.2l12.6-1.5l-1.2-9.2
		c0-0.3,0-0.7,0-0.9c0-1.8,0.6-3.3,1.8-4.3c1.2-1,2.7-1.6,4.3-1.6c1.5,0,2.7,0.4,3.7,1.3c1.2,1,1.9,2.4,2.1,4.1l3.7,30
		c0,0.3,0,0.6,0,0.9c0,1.6-0.4,3-1.5,4C292.9,53.8,291.8,54.4,290.1,54.7"/>
	<path class="st5" d="M223.6,54.7c-0.9,0.1-1.8,0-2.7-0.4c-1-0.4-1.8-0.9-2.5-1.5l-15.8-16.4c0.6,3.4,1.3,8.1,2.1,14.3
		c0,0.3,0.1,0.7,0.1,1c0,1.8-0.6,3.1-1.8,4.3c-1.2,1-2.7,1.6-4.3,1.6c-1.5,0-2.7-0.4-3.8-1.3c-1.2-1-1.9-2.4-2.1-4.1l-3.7-29.9
		c0-0.3,0-0.6,0-0.9c0-1.6,0.4-3,1.5-4c1-1,2.2-1.6,3.8-1.9c0.9-0.1,1.8,0,2.8,0.4c1,0.4,1.8,0.9,2.5,1.5L215.5,34
		c-0.6-3.4-1.3-8.3-2.2-14.6c0-0.3-0.1-0.7-0.1-1c0-1.8,0.6-3.3,1.9-4.3c1.2-1,2.5-1.5,4.1-1.5c1.5,0,2.7,0.4,3.8,1.3
		c1.2,1,1.9,2.4,2.1,4.1l3.7,29.9c0,0.3,0,0.6,0,0.9c0,1.6-0.4,3-1.5,4C226.4,53.8,225.1,54.4,223.6,54.7"/>
	<path class="st6" d="M141.7,24.4l-3.8,0.4l3,24.5c0,0.3,0,0.6,0,0.9c0,1.8-0.6,3.3-1.9,4.4c-1.2,1-2.5,1.5-4.1,1.5
		c-1.5,0-2.7-0.4-3.8-1.3c-1.2-1-1.9-2.4-2.1-4.1l-3-24.5l-3.5,0.6c-0.3,0-0.6,0-0.9,0c-1.6,0-3-0.6-4-1.6c-1-1.2-1.5-2.5-1.5-4
		c0-1.3,0.4-2.7,1.3-3.7c0.9-1,2.1-1.8,3.5-1.9l19.4-2.4c1.9-0.3,3.4,0.3,4.7,1.5c1,1.2,1.6,2.5,1.6,4.3c0,1.3-0.4,2.5-1.2,3.5
		C144.6,23.5,143.4,24.2,141.7,24.4"/>
	<path class="st7" d="M33.1,58.2l-3.8-0.7l4.6-3L33.1,58.2z M34.6,27.8l-9.8,6.5L34,48.5c-1,0.9-2.5,0.9-3.7,0.1
		c0.4,2.7-2.5,4.6-4.7,3.1c0.3,1.3-0.4,2.7-1.6,3.3l-9-14c-0.3,1.6-0.4,3.4-0.7,5c-0.4,2.4-1,4.1-1.9,5.3c-1,1.6-2.5,2.5-4.4,2.5
		c-0.4,0-0.9,0-1.5-0.1c-1.5-0.3-2.7-0.9-3.5-1.9c-0.9-1-1.3-2.2-1.3-3.7c0-0.4,0-0.7,0.1-1.2l5.9-30.1c0.3-1.6,1-2.8,2.2-3.5
		c1-0.7,2.2-1.2,3.5-1.2c1.6,0,3.1,0.4,4.3,1.5s1.8,2.4,1.8,4.1c0,0.4,0,0.9-0.1,1.3l-1.2,6.4l11.4-8.1c1.2-0.9,2.4-1.3,3.7-1.3
		c1.6,0,3,0.6,4.1,1.6c1.2,1,1.8,2.5,1.8,4c0,0.4,0,0.7-0.1,1.2C38.6,24.5,37.1,26.2,34.6,27.8z"/>
	<path class="st8" d="M158.2,51.6c0,1-0.3,2.1-0.9,2.7c-0.6,0.6-1.2,1-2.1,1.3c-1,0.1-1.9,0-2.8-0.4c-0.9-0.4-1.5-1.3-1.6-2.5
		c0-0.3-0.1-0.4-0.1-0.7l-0.9-19.1c0-1,0.3-2.1,0.9-2.7c0.6-0.6,1.2-1,2.1-1.3c1-0.1,1.9,0,2.8,0.4c0.9,0.4,1.5,1.3,1.6,2.5
		c0,0.3,0.1,0.4,0.1,0.7L158.2,51.6z"/>
	<path class="st8" d="M152.7,26.6c-1,1.6-2.7,1.9-3.7,1.3c-1.8-0.9-2.1-4,0.7-4.9c-5.2-3,1.5-8.3,3.1-3.1c1.9-5.3,8.1,0.4,3.7,2.7
		c4.9,0.9,1.3,8-3.1,4l-0.3-0.4C153,26.2,152.8,26.3,152.7,26.6"/>
	<path class="st9" d="M88.5,26.9l-7.2-1.3l-0.7,3.7l6.7,1.3c1.6,0.3,2.8,1,3.5,2.1c0.7,0.9,1.2,2.1,1.2,3.4c0,1.5-0.4,2.8-1.5,4
		s-2.4,1.8-4.1,1.8c-0.4,0-0.9,0-1.3-0.1l-6.7-1.3l-0.7,4c1.6,0.3,3.3,0.6,4.9,0.7c2.2,0.4,4,1,5,1.8c1.6,1,2.4,2.4,2.4,4.1
		c0,1.6-0.6,3-1.6,4.1c-1,1.2-2.4,1.8-4,1.8c-0.4,0-0.9,0-1.3-0.1l-13.4-2.7c-1.5-0.3-2.7-0.9-3.5-2.1c-0.9-1-1.3-2.4-1.3-3.7
		c0-0.4,0-0.9,0.1-1.3l5.6-28.7c0.3-1.6,1-2.8,1.9-3.8c1-1,2.4-1.6,3.8-1.6c0.4,0,0.9,0,1.3,0.1l13,2.5c1.5,0.3,2.7,1,3.5,2.1
		c0.7,0.9,1.2,2.1,1.2,3.4c0,1.6-0.4,3-1.5,4c-0.9,1.5-2.2,2.1-3.8,2.1C89.4,27,89,27,88.5,26.9"/>
	<path class="st2" d="M72.9,16.7c0.1-0.3,0.3-0.4,0.6-0.6c0.9-0.9,2.1-1.3,3.4-1.3c0.4,0,0.9,0,1.2,0.1l11.5,2.2
		c1.3,0.3,2.4,0.9,3.1,1.8c0.6,0.9,1,1.8,1,2.8c0,1.3-0.4,2.5-1.3,3.4c-0.1,0.3-0.4,0.4-0.6,0.6c0.6-0.9,1-1.9,1-3.1
		c0-1-0.3-2.1-1-2.8c-0.7-0.9-1.8-1.5-3.1-1.8l-11.5-2.2c-0.4-0.1-0.9-0.1-1.2-0.1C74.8,15.7,73.8,16,72.9,16.7"/>
	<path class="st2" d="M76.7,43.5l-0.4,2.1c1.6,0.3,3.3,0.4,4.7,0.6c2.2,0.3,3.8,0.9,4.9,1.5c1.5,0.7,2.4,1.9,2.4,3.3
		c0,1.3-0.4,2.4-1.5,3.3c-0.1,0.1-0.4,0.3-0.6,0.4c0.7-0.9,1-1.8,1-2.8c0-1.3-0.7-2.5-2.4-3.3c-1.2-0.6-2.8-1-4.9-1.5
		c-1.2-0.1-2.4-0.3-3.5-0.4c-1.5-0.1-1.2,0-0.9-1.5c0-0.3,0.1-0.7,0.3-1C75.8,43.7,76.1,43.3,76.7,43.5"/>
	<path class="st2" d="M79.7,28.4l-0.4,2.1l6.7,1c1.6,0.3,2.8,0.9,3.7,1.8c0.7,0.9,1.2,1.8,1.2,3c0,1.3-0.4,2.5-1.5,3.4
		c-0.1,0.1-0.4,0.4-0.6,0.6c0.7-0.9,1-1.8,1-3c0-1.2-0.4-2.1-1.2-3c-0.9-0.9-2.1-1.5-3.7-1.8c-1.8-0.3-3.7-0.6-5.5-0.9
		c-1.5-0.3-1.2-1-0.7-2.5C78.8,28.7,79.1,28.2,79.7,28.4"/>
	<path class="st10" d="M234.1,20.5c0.1-0.1,0.9-0.4,0.9-0.4s0.9-1.5,1-1.8c0.3-0.6,0.4-1.9,0.6-2.5c0-0.1,0.6-0.1,0.6-0.3
		c0-0.4,0.1-1,0.4-1.3c0.1-0.3,0.9-1.6,1-1.8c0.1-0.1,0.3-0.3,0.4-0.3c0.1,0,0.3,0,0.4,0c0.1,0,0.4,0.1,0.4,0.1
		c0.3,0.3,0.6,1.9,0.7,2.2c0.1,0.4,0.1,1,0,1.5c0,0.1,0.4,0.1,0.4,0.3c0.1,0.1,0,0.4,0,0.4v0.1c0,0-0.1,1.2,0,1.6
		c0.1,0.6,0.1,1.6,0.9,2.1c0.1,0.1,0.6,0.4,0.6,0.4c-0.3,3-1.6,13-1.6,13s-1.9,15.8-2.8,20.8c0,0.1-0.6,0.1-0.6,0.1
		s-0.3,0.7-0.4,0.9c-0.1,0-0.4,0.1-0.6,0.1c-0.7,0.1-2.4,0.1-3.1,0c-0.7,0-1.5-0.1-2.2-0.3c-0.1,0-0.7-0.1-0.9-0.3
		c-0.1-0.1-0.3-0.1-0.4-0.3c-0.1-0.1-0.1-0.4,0-0.9c0-0.1-0.4-0.3-0.4-0.3c0.1-2.1,0.9-6.2,1-8.1L234.1,20.5z"/>
	<path class="st2" d="M235.4,21.4c-0.1,0-0.1,0.1-0.1,0.3s0.1,0.1,0.3,0.1c0,0,2.7-0.9,5.6,0.7c0.1,0,0.3,0,0.3-0.1s0-0.3-0.1-0.3
		C238.3,20.4,235.4,21.4,235.4,21.4"/>
	<path class="st2" d="M241.5,22.3c0-0.1-0.1-0.3-0.1-0.3c-0.1,0-0.3,0.1-0.3,0.1l-4,30.6c0,0.1,0.1,0.3,0.1,0.3
		c0.1,0,0.3-0.1,0.3-0.1L241.5,22.3z"/>
	<path class="st11" d="M373.8,50.8c-0.3,1.6-1,3-2.2,4c-1,0.9-2.2,1.3-3.7,1.3c-1.6,0-3.1-0.6-4.3-1.6c-1.2-1-1.8-2.5-1.8-4.3
		c0-0.4,0-0.7,0-1.2l4.7-29.7c0.3-1.6,1-3,2.2-4c1-0.9,2.2-1.3,3.7-1.3c1.6,0,3.1,0.6,4.3,1.6s1.8,2.5,1.8,4.3c0,0.4,0,0.7,0,1.2
		L373.8,50.8z"/>
	<path class="st2" d="M369.3,20l9,1.5v0.3l-9-1.5V20z M367.7,30l9,1.5v0.3l-9-1.5V30z M373.2,21.6l5,0.7v0.3l-5-0.7V21.6z
		 M371.6,31.6l5,0.7v0.3l-5-0.7V31.6z M373,22.6l5,0.7v0.3l-5-0.7V22.6z M371.4,32.7l5,0.7v0.3l-5-0.7V32.7z M372.9,23.5l5,0.7v0.3
		l-5-0.7V23.5z M371.3,33.5l5,0.7v0.3l-5-0.7V33.5z M372.7,24.5l5,0.7v0.3l-5-0.7V24.5z M371.1,34.6l5,0.7v0.3l-5-0.7V34.6z
		 M370.5,25.3l7.1,1.2v0.3l-7.1-1.2V25.3z M369,35.3l7.1,1.2v0.3l-7.1-1.2V35.3z M372.4,26.6l5,0.7v0.3l-5-0.7V26.6z M370.8,36.7
		l5,0.7v0.3l-5-0.7V36.7z M372.3,27.6l5,0.7v0.3l-5-0.7V27.6z M370.7,37.7l5,0.7v0.3l-5-0.7V37.7z M372.1,28.5l5,0.7v0.3l-5-0.7
		V28.5z M370.5,38.6l5,0.7v0.3l-5-0.7V38.6z M372,29.6l5,0.7v0.3l-5-0.7V29.6z M370.4,39.6l5,0.7v0.3l-5-0.7V39.6z M366.1,40.1
		l9,1.5v0.3l-9-1.5V40.1z M370.1,41.7l5,0.7v0.3l-5-0.7V41.7z M370.1,41.7l5,0.7v0.3l-5-0.7V41.7z M369.9,42.7l5,0.7v0.3l-5-0.7
		V42.7z M369.9,42.7l5,0.7v0.3l-5-0.7V42.7z M369.8,43.7l5,0.7v0.3l-5-0.7V43.7z M369.8,43.7l5,0.7v0.3l-5-0.7V43.7z M369.5,44.6
		l5,0.7v0.3l-5-0.7V44.6z M369.5,44.6l5,0.7v0.3l-5-0.7V44.6z M367.4,45.4l7.1,1.2v0.3l-7.1-1.2V45.4z M369.3,45.7l5,0.7v0.3l-5-0.7
		V45.7z M369.2,46.7l5,0.7v0.3l-5-0.7V46.7z M369.2,46.7l5,0.7v0.3l-5-0.7V46.7z M369,47.7l5,0.7v0.3l-5-0.7V47.7z M369,47.7l5,0.7
		v0.3l-5-0.7V47.7z M368.9,48.8l5,0.7v0.3l-5-0.7V48.8z M368.9,48.8l5,0.7v0.3l-5-0.7V48.8z M368.7,49.7l5,0.7v0.3l-5-0.7V49.7z
		 M368.7,49.7l5,0.7v0.3l-5-0.7V49.7z M364.6,50.1l9,1.5v0.3l-9-1.5V50.1z"/>
	<path d="M347.9,40.2l-3.5,0.4l0.6,4.7l4.3-0.6c1.9-0.3,2.8-1.2,2.7-3c-0.1-1.2-1-1.8-2.8-1.8C348.6,40.1,348.4,40.1,347.9,40.2"/>
	<path d="M344.7,25.4l-2.2,0.3l0.4,4l2.2-0.3c1.5-0.1,2.2-1,2.1-2.5C347,25.7,346.1,25.3,344.7,25.4"/>
	<path class="st12" d="M351.5,55.6l-10.9,1.3c-0.3,0-0.6,0-0.9,0c-1.5,0-2.8-0.4-4-1.5c-1.2-0.9-1.8-2.2-2.1-3.8L329.9,22
		c0-0.3,0-0.6,0-0.9c0-1.6,0.6-3,1.6-4c1-1,2.4-1.6,3.8-1.9l10.2-1.2c0.6,0,1.2-0.1,1.6-0.1c3,0,5.5,0.9,7.7,2.7s3.5,4.3,4,7.2
		c0,0.6,0.1,1.2,0.1,1.6c0,2.4-0.7,4.4-2.1,6.1c3.3,0.7,5.5,3,6.7,6.7c1.2,3.7,0.9,7.2-0.9,10.5C360.3,52.8,356.6,55,351.5,55.6"/>
	<path class="st2" d="M340.5,24.5h0.1c0.1,0,0.1,0,0.3,0c0.1,0,0.1,0,0.3,0.1c0,0,0.1,0,0.1,0.1l-0.1,0.7h-0.1H341
		c-0.1,0-0.1,0-0.3,0c-0.1,0-0.1,0-0.3-0.1c-0.1,0-0.1-0.1-0.1-0.1v-0.1c0-0.1,0-0.3,0.1-0.4C340.2,24.5,340.4,24.5,340.5,24.5
		 M344.2,20.8c0,0,0.1,0,0.1,0.1l0.1,0.1c0,0,0,0.1,0,0.3s0,0.1,0,0.1c0,0.1-0.1,0.3-0.1,0.3c-0.1,0.1-0.3,0.1-0.4,0.1
		s-0.3,0.1-0.4,0.1s-0.3,0.1-0.4,0.1c-0.1,0.1-0.3,0.1-0.4,0.3c-0.1,0.1-0.3,0.1-0.3,0.3c-0.1,0.1-0.3,0.1-0.3,0.3
		c-0.1,0.1-0.3,0.3-0.3,0.3s-0.1,0-0.1,0.1h-0.1c-0.1,0-0.1,0-0.3-0.1c-0.1-0.1-0.1-0.1-0.1-0.3c0-0.1,0.1-0.4,0.1-0.6
		c0.1-0.1,0.3-0.4,0.4-0.6s0.4-0.3,0.6-0.4c0.3-0.1,0.4-0.3,0.7-0.4c0.3-0.1,0.4-0.1,0.7-0.3C343.8,20.8,343.9,20.8,344.2,20.8z
		 M345.4,20.1c-0.4,0-1,0-1.5,0c-0.4,0.1-0.9,0.1-1.3,0.4c-0.4,0.1-0.7,0.4-1.2,0.7c-0.3,0.3-0.7,0.6-0.9,1
		c-0.3,0.4-0.4,0.7-0.7,1.2c-0.1,0.4-0.3,0.9-0.3,1.5c0,0.4,0,1,0,1.5c0.1,0.4,0.1,0.9,0.4,1.3c0.1,0.4,0.4,0.7,0.7,1.2
		c0.3,0.3,0.6,0.7,1,0.9c0.4,0.3,0.7,0.4,1.2,0.6s0.9,0.3,1.5,0.3c0.4,0,1,0,1.5,0c0.4-0.1,0.9-0.3,1.3-0.4c0.4-0.1,0.7-0.4,1.2-0.7
		c0.3-0.3,0.7-0.6,0.9-1c0.3-0.4,0.4-0.7,0.7-1.2c0.1-0.4,0.3-0.9,0.3-1.3c0-0.4,0-1,0-1.5c-0.1-0.4-0.1-0.9-0.4-1.3
		c-0.1-0.4-0.4-0.7-0.7-1.2c-0.3-0.3-0.6-0.7-1-0.9c-0.4-0.3-0.7-0.4-1.2-0.6C346.4,20.2,345.8,20.1,345.4,20.1z M345.2,19.8
		c0.6,0,1,0.1,1.5,0.3s0.9,0.4,1.3,0.7c0.4,0.3,0.7,0.6,1,1c0.3,0.4,0.6,0.7,0.7,1.2c0.1,0.4,0.3,0.9,0.4,1.5c0.1,0.4,0.1,1,0,1.6
		c0,0.4-0.1,1-0.3,1.5c-0.1,0.4-0.4,0.9-0.7,1.3c-0.3,0.4-0.6,0.7-1,1s-0.7,0.6-1.2,0.7s-0.9,0.3-1.3,0.4c-0.4,0.1-1,0.1-1.5,0
		c-0.4,0-1-0.1-1.5-0.3c-0.4-0.1-0.9-0.4-1.3-0.7c-0.4-0.3-0.7-0.6-1-1c-0.3-0.4-0.6-0.7-0.9-1.2c-0.1-0.4-0.4-0.9-0.4-1.5
		c-0.1-0.4-0.1-1,0-1.5c0-0.6,0.1-1,0.3-1.5c0.1-0.4,0.4-0.9,0.7-1.3c0.3-0.4,0.6-0.7,1-1s0.7-0.6,1.2-0.7s0.9-0.3,1.5-0.4
		C344.2,19.8,344.8,19.8,345.2,19.8z"/>
	<path class="st2" d="M340.7,24.7L340.7,24.7L340.7,24.7L340.7,24.7c-0.1,0-0.1,0-0.3,0l0,0v0.1V25l0,0l0,0l0,0l0,0c0,0,0,0,0.1,0
		c0,0,0,0,0.1,0h0.1h0.1h0.1h0.1l0,0h0.1l0,0v-0.6l0,0l0,0c0,0,0,0-0.1,0c0,0,0,0-0.1,0l0,0H341l0,0
		C340.8,24.7,340.8,24.7,340.7,24.7L340.7,24.7L340.7,24.7z M340.7,24.4L340.7,24.4L340.7,24.4h0.1l0,0h0.1l0,0h0.1l0,0h0.1h0.1l0,0
		c0,0,0.1,0,0.1,0.1l0,0v0.1l-0.1,0.7v0.1h-0.1l0,0l0,0h-0.1l0,0H341l0,0h-0.1l0,0h-0.1l0,0h-0.1h-0.1h-0.1c0,0-0.1,0-0.1-0.1
		c0,0-0.1,0-0.1-0.1c0,0,0-0.1-0.1-0.1l0,0V25c0-0.1,0-0.1,0-0.3c0-0.1,0-0.1,0.1-0.1c0-0.1,0.1-0.1,0.1-0.1
		C340.4,24.4,340.5,24.4,340.7,24.4L340.7,24.4z M344.2,21L344.2,21c-0.1,0-0.1,0-0.3,0s-0.1,0-0.3,0c-0.1,0-0.1,0-0.3,0.1
		c-0.1,0-0.3,0.1-0.3,0.1c-0.1,0-0.3,0.1-0.3,0.1c-0.1,0-0.3,0.1-0.3,0.1c-0.1,0.1-0.1,0.1-0.3,0.3c-0.1,0.1-0.1,0.1-0.3,0.3
		c-0.1,0.1-0.1,0.1-0.3,0.3c0,0.1-0.1,0.1-0.1,0.3s-0.1,0.1-0.1,0.3c0,0.1,0,0.1,0,0.3v0.1c0,0,0,0,0,0.1l0,0c0,0,0,0,0.1,0l0,0
		c0,0,0,0,0.1,0l0,0l0,0l0,0c0,0,0,0,0.1,0l0.1-0.1l0.1-0.1l0,0l0.1-0.1l0,0l0.1-0.1l0.1-0.1l0.1-0.1l0.1-0.1l0.1-0.1l0,0l0.1-0.1
		c0.1,0,0.1,0,0.3-0.1c0.1,0,0.1,0,0.3,0h0.1h0.1c0,0,0.1,0,0.1-0.1c0,0,0,0,0.1-0.1v-0.1c0,0,0,0,0-0.1c0,0,0,0,0-0.1
		c0,0,0,0,0-0.1c0,0,0,0,0-0.1l0,0C344.2,21.1,344.2,21.1,344.2,21C344.2,21.1,344.2,21.1,344.2,21L344.2,21
		C344.2,21.1,344.2,21,344.2,21L344.2,21z M344.2,20.7C344.2,20.8,344.2,20.8,344.2,20.7L344.2,20.7c0.1,0,0.3,0.1,0.3,0.1l0,0
		c0,0,0,0,0.1,0.1v0.1l0,0v0.1v0.1v0.1c0,0,0,0,0,0.1c0,0.1,0,0.1-0.1,0.3c0,0.1-0.1,0.1-0.1,0.1l-0.1,0.1c0,0-0.1,0-0.3,0.1
		c0,0-0.1,0-0.3,0c-0.1,0-0.1,0-0.3,0h-0.1c0,0-0.1,0-0.1,0.1l0,0c-0.1,0-0.1,0.1-0.1,0.1l-0.1,0.1l-0.1,0.1l-0.1,0.1l-0.1,0.1l0,0
		l-0.1,0.1l0,0l-0.1,0.1l-0.1,0.1l0,0l0,0l-0.1,0.1l0,0h-0.1h-0.1h-0.1l0,0c0,0-0.1,0-0.1-0.1l0,0l-0.1-0.1c0,0,0-0.1,0-0.3
		c0-0.1,0-0.1,0.1-0.3c0-0.1,0.1-0.1,0.1-0.3c0-0.1,0.1-0.1,0.1-0.3c0.1-0.1,0.1-0.1,0.3-0.3c0.1-0.1,0.1-0.1,0.3-0.3
		c0.1-0.1,0.1-0.1,0.3-0.3c0.1-0.1,0.3-0.1,0.3-0.3c0.1,0,0.3-0.1,0.3-0.1c0.1,0,0.3-0.1,0.3-0.1c0.1,0,0.3-0.1,0.3-0.1
		c0.1,0,0.3,0,0.3,0C343.9,20.7,344.1,20.7,344.2,20.7z M345.4,20.2c-0.3,0-0.4,0-0.7,0s-0.4,0-0.7,0l0,0c-0.3,0-0.4,0.1-0.7,0.1
		l0,0c-0.1,0-0.4,0.1-0.6,0.3c-0.1,0.1-0.4,0.1-0.6,0.3c-0.1,0.1-0.4,0.3-0.6,0.4c-0.1,0.1-0.3,0.3-0.4,0.4
		c-0.1,0.1-0.3,0.3-0.4,0.4c-0.3,0.3-0.4,0.7-0.6,1.2c-0.1,0.1-0.1,0.4-0.1,0.7c0,0.3-0.1,0.4-0.1,0.7c0,0.3,0,0.4,0,0.7
		c0,0.3,0,0.4,0,0.7c0,0.3,0.1,0.4,0.1,0.7c0,0.1,0.1,0.4,0.3,0.6c0.1,0.1,0.1,0.4,0.3,0.6l0,0c0.1,0.1,0.3,0.4,0.4,0.6
		c0.1,0.1,0.3,0.3,0.4,0.4c0.1,0.1,0.3,0.3,0.6,0.4c0.1,0.1,0.4,0.3,0.6,0.3c0.1,0.1,0.4,0.1,0.6,0.3c0.1,0.1,0.4,0.1,0.7,0.1
		s0.4,0.1,0.7,0.1s0.4,0,0.7,0s0.4,0,0.7-0.1c0.3,0,0.4-0.1,0.6-0.1c0.1,0,0.4-0.1,0.6-0.3c0.1-0.1,0.4-0.1,0.6-0.3
		c0.1-0.1,0.4-0.3,0.6-0.4c0.1-0.1,0.3-0.3,0.4-0.4c0.1-0.1,0.3-0.3,0.4-0.6c0.1-0.1,0.3-0.4,0.3-0.6c0.1-0.1,0.1-0.4,0.3-0.6
		c0.1-0.1,0.1-0.4,0.1-0.6s0.1-0.4,0.1-0.7c0-0.4,0-0.9,0-1.3c0-0.3-0.1-0.4-0.1-0.6c0-0.1-0.1-0.4-0.3-0.6
		c-0.1-0.4-0.4-0.7-0.7-1.2c-0.1-0.1-0.3-0.3-0.4-0.4c-0.1-0.1-0.3-0.3-0.6-0.4c-0.3-0.3-0.7-0.4-1.2-0.6c-0.1-0.1-0.4-0.1-0.6-0.1
		C345.8,20.4,345.7,20.2,345.4,20.2z M346,20.1c-0.1,0-0.4-0.1-0.6-0.1c-0.3,0-0.4,0-0.7,0l0,0c-0.3,0-0.4,0-0.7,0.1
		c-0.3,0-0.4,0.1-0.7,0.1s-0.4,0.1-0.7,0.3c-0.1,0.1-0.4,0.1-0.6,0.3c-0.1,0.1-0.4,0.3-0.6,0.4c-0.1,0.1-0.3,0.3-0.6,0.4
		c-0.1,0.1-0.3,0.3-0.4,0.6c-0.1,0.1-0.3,0.4-0.4,0.6c-0.1,0.1-0.1,0.4-0.3,0.7l0,0c-0.1,0.3-0.1,0.4-0.1,0.7l0,0
		c0,0.3-0.1,0.4-0.1,0.7c0,0.3,0,0.4,0,0.7c0,0.3,0,0.4,0.1,0.7c0,0.3,0.1,0.4,0.1,0.7c0.1,0.3,0.1,0.4,0.3,0.6
		c0.1,0.1,0.3,0.4,0.3,0.6c0.1,0.1,0.3,0.4,0.4,0.6c0.1,0.1,0.3,0.3,0.4,0.4c0.1,0.1,0.4,0.3,0.6,0.4c0.1,0.1,0.4,0.3,0.6,0.4
		c0.1,0.1,0.4,0.1,0.7,0.3s0.4,0.1,0.7,0.1s0.4,0.1,0.7,0.1c0.3,0,0.4,0,0.7,0c0.3,0,0.4,0,0.7-0.1c0.3,0,0.4-0.1,0.7-0.1
		s0.4-0.1,0.6-0.3c0.1-0.1,0.4-0.1,0.6-0.3c0.1-0.1,0.4-0.3,0.6-0.4c0.1-0.1,0.3-0.3,0.4-0.4c0.1-0.1,0.3-0.3,0.4-0.6
		c0.1-0.1,0.3-0.4,0.4-0.6c0.1-0.1,0.1-0.4,0.3-0.6c0.1-0.3,0.1-0.4,0.1-0.7c0-0.3,0.1-0.4,0.1-0.7c0-0.3,0-0.6,0-0.7
		c0-0.3,0-0.4-0.1-0.7c0-0.3-0.1-0.4-0.1-0.7c0-0.3-0.1-0.4-0.3-0.7c-0.1-0.1-0.1-0.4-0.3-0.6c-0.1-0.1-0.3-0.4-0.4-0.6
		s-0.1-0.1-0.3-0.3c0.1,0.1,0.1,0.3,0.3,0.3c0.3,0.3,0.6,0.7,0.7,1.2c0.1,0.1,0.1,0.4,0.3,0.6c0,0.3,0.1,0.4,0.1,0.7
		c0.1,0.4,0.1,1,0,1.5c0,0.3,0,0.4-0.1,0.7c0,0.3-0.1,0.4-0.1,0.7c-0.1,0.3-0.1,0.4-0.3,0.6c-0.1,0.1-0.3,0.4-0.4,0.6
		c-0.1,0.1-0.3,0.4-0.4,0.6c-0.1,0.1-0.3,0.3-0.4,0.4c-0.1,0.1-0.4,0.3-0.6,0.4c-0.1,0.1-0.4,0.3-0.6,0.3c-0.1,0.1-0.4,0.1-0.6,0.3
		c-0.3,0.1-0.4,0.1-0.7,0.1s-0.4,0.1-0.7,0.1s-0.4,0-0.7,0c-0.3,0-0.4,0-0.7-0.1c-0.3,0-0.4-0.1-0.7-0.1c-0.3-0.1-0.4-0.1-0.7-0.3
		c-0.1-0.1-0.4-0.3-0.6-0.4c-0.1-0.1-0.4-0.3-0.6-0.4c-0.1-0.1-0.3-0.3-0.4-0.4c-0.1-0.1-0.3-0.4-0.4-0.6l0,0
		c-0.1-0.1-0.3-0.4-0.3-0.6c-0.1-0.1-0.1-0.4-0.3-0.6c0-0.3-0.1-0.4-0.1-0.7s0-0.4,0-0.7s0-0.4,0-0.7c0-0.3,0-0.4,0.1-0.7
		c0-0.3,0.1-0.4,0.1-0.7c0.1-0.4,0.4-0.9,0.7-1.3c0.1-0.1,0.3-0.4,0.4-0.6c0.1-0.1,0.3-0.3,0.6-0.4c0.1-0.1,0.4-0.3,0.6-0.4
		c0.1-0.1,0.4-0.3,0.6-0.3c0.1-0.1,0.4-0.1,0.7-0.3l0,0c0.3,0,0.4-0.1,0.7-0.1l0,0c0.3,0,0.4,0,0.7,0c0.3,0,0.4,0,0.7,0
		C345.5,20,345.7,20.1,346,20.1z M345.2,19.7c0.3,0,0.6,0,0.7,0.1c0.3,0,0.4,0.1,0.7,0.3s0.4,0.1,0.7,0.3c0.3,0.1,0.4,0.3,0.6,0.4
		c0.4,0.3,0.7,0.6,1.2,1c0.1,0.1,0.3,0.4,0.4,0.6c0.1,0.1,0.3,0.4,0.3,0.6c0.1,0.3,0.1,0.4,0.3,0.7c0.1,0.3,0.1,0.4,0.1,0.7
		c0,0.3,0,0.6,0.1,0.7c0,0.3,0,0.6,0,0.9c0,0.3,0,0.6-0.1,0.7c0,0.3-0.1,0.4-0.3,0.7c-0.1,0.3-0.1,0.4-0.3,0.7
		c-0.1,0.1-0.3,0.4-0.4,0.6c-0.1,0.1-0.3,0.4-0.4,0.6s-0.3,0.3-0.6,0.4c-0.1,0.1-0.4,0.3-0.6,0.4c-0.1,0.1-0.4,0.3-0.6,0.3
		c-0.3,0.1-0.4,0.1-0.7,0.3s-0.4,0.1-0.7,0.1c-0.3,0-0.4,0-0.7,0.1c-0.3,0-0.6,0-0.7,0c-0.3,0-0.6,0-0.7-0.1c-0.3,0-0.4-0.1-0.7-0.3
		c-0.3-0.1-0.4-0.1-0.7-0.3s-0.4-0.3-0.6-0.4c-0.1-0.1-0.4-0.3-0.6-0.4c-0.1-0.1-0.3-0.3-0.6-0.6c-0.1-0.1-0.3-0.4-0.4-0.6
		s-0.3-0.4-0.4-0.6c-0.1-0.3-0.1-0.4-0.3-0.7c-0.1-0.3-0.1-0.4-0.1-0.7c0-0.3-0.1-0.4-0.1-0.7c0-0.3,0-0.6,0-0.7
		c0-0.3,0-0.6,0.1-0.7l0,0c0-0.3,0.1-0.4,0.3-0.7l0,0c0.1-0.3,0.1-0.4,0.3-0.7c0.1-0.3,0.3-0.4,0.4-0.6c0.1-0.1,0.3-0.4,0.4-0.6
		c0.1-0.1,0.3-0.3,0.6-0.4c0.1-0.1,0.4-0.3,0.6-0.4c0.1-0.1,0.4-0.3,0.6-0.3c0.3-0.1,0.4-0.1,0.7-0.3c0.3-0.1,0.4-0.1,0.7-0.1
		s0.4,0,0.7-0.1C344.8,19.7,345.1,19.7,345.2,19.7z"/>
	<path class="st2" d="M350.9,38c0,0,0,0.1-0.1,0.1c0,0.1-0.1,0.1-0.1,0.3c0,0.1-0.1,0.1-0.1,0.3l-0.1,0.1l-0.9-0.4v-0.1
		c0,0,0-0.1,0.1-0.3c0-0.1,0.1-0.1,0.1-0.3s0.1-0.1,0.1-0.3c0.1-0.1,0.1-0.1,0.3-0.1c0.1,0,0.1,0,0.3,0c0.1,0.1,0.3,0.1,0.4,0.3
		C351,37.5,351,37.7,350.9,38 M354,43.7c0,0.1-0.1,0.1-0.1,0.1c-0.1,0-0.1,0-0.3,0c-0.1,0-0.1,0-0.3,0c-0.1,0-0.1,0-0.3-0.1
		c-0.1-0.1-0.3-0.1-0.3-0.3c0-0.1,0-0.3,0-0.6c0-0.1,0-0.4,0-0.6c0-0.1,0-0.4,0-0.6c0-0.1-0.1-0.4-0.1-0.6c0-0.1-0.1-0.3-0.1-0.6
		c0-0.1-0.1-0.3-0.3-0.6c-0.1-0.1-0.1-0.4-0.3-0.6c0,0,0-0.1,0-0.3c0-0.1,0-0.1,0-0.3c0-0.1,0.1-0.3,0.3-0.3c0.1,0,0.3,0,0.4,0
		c0.3,0.1,0.4,0.3,0.6,0.4c0.1,0.3,0.3,0.4,0.4,0.7s0.3,0.6,0.4,1c0.1,0.3,0.1,0.7,0.1,1c0,0.3,0,0.6,0,0.9
		C354.1,43.3,354,43.6,354,43.7z M354.4,45.5c0.3-0.6,0.4-1.2,0.6-1.8c0.1-0.6,0.1-1.2,0-1.8c0-0.6-0.1-1.2-0.4-1.8
		c-0.1-0.6-0.4-1-0.9-1.6c-0.3-0.4-0.7-0.9-1.2-1.3c-0.4-0.4-1-0.7-1.6-1c-0.6-0.3-1.2-0.4-1.8-0.6c-0.6-0.1-1.2-0.1-1.8,0
		c-0.6,0-1.2,0.3-1.8,0.4c-0.6,0.3-1,0.4-1.6,0.9c-0.4,0.3-0.9,0.7-1.3,1.3c-0.4,0.4-0.7,1-1,1.6s-0.4,1.2-0.4,1.8
		c0,0.6,0,1.2,0,1.8c0.1,0.6,0.3,1.2,0.4,1.8c0.3,0.6,0.6,1,0.9,1.6c0.3,0.4,0.7,0.9,1.2,1.3c0.4,0.4,1,0.7,1.5,0.9
		c0.6,0.3,1.2,0.4,1.8,0.4c0.6,0.1,1.2,0.1,1.8,0c0.6-0.1,1.2-0.3,1.8-0.4c0.6-0.3,1-0.4,1.5-0.9c0.4-0.3,0.9-0.7,1.3-1.2
		C353.8,46.7,354.1,46.1,354.4,45.5z M354.9,45.5c-0.3,0.6-0.6,1.2-1,1.8c-0.4,0.6-0.9,1-1.3,1.3c-0.4,0.4-1,0.7-1.6,0.9
		c-0.6,0.3-1.2,0.4-1.8,0.4c-0.6,0.1-1.3,0.1-1.9,0c-0.6-0.1-1.3-0.3-1.9-0.6c-0.6-0.3-1.2-0.6-1.6-1c-0.4-0.4-0.9-0.9-1.3-1.3
		c-0.4-0.4-0.7-1-0.9-1.6c-0.3-0.6-0.4-1.2-0.4-1.8c-0.1-0.6,0-1.2,0-1.9c0.1-0.6,0.3-1.3,0.6-1.9c0.3-0.6,0.6-1.2,1-1.6
		c0.4-0.6,0.9-1,1.3-1.3c0.4-0.4,1-0.7,1.6-1c0.6-0.3,1.2-0.4,1.8-0.6c0.6-0.1,1.3-0.1,1.9,0c0.6,0.1,1.3,0.3,1.9,0.6
		c0.6,0.3,1.2,0.6,1.8,1c0.4,0.4,0.9,0.9,1.3,1.3s0.7,1,0.9,1.6c0.3,0.6,0.4,1.2,0.4,1.8c0.1,0.6,0.1,1.3,0,1.9
		C355.3,44.3,355.1,44.9,354.9,45.5z"/>
	<path class="st2" d="M349.4,38.3L349.4,38.3 M350.7,38L350.7,38L350.7,38c0-0.1,0.1-0.3,0.1-0.3v-0.1l-0.1-0.1c0,0-0.1-0.1-0.3-0.1
		l0,0c0,0,0,0-0.1,0l0,0c0,0,0,0-0.1,0c0,0,0,0-0.1,0c0,0,0,0-0.1,0.1c0,0,0,0.1-0.1,0.1c0,0,0,0.1-0.1,0.1l0,0c0,0,0,0.1-0.1,0.1
		l0,0V38l0,0c0,0,0,0,0,0.1l0,0c0,0,0,0,0,0.1l0,0l0,0l0.7,0.3l0,0l0,0c0,0,0,0,0.1-0.1c0,0,0-0.1,0.1-0.1c0,0,0-0.1,0.1-0.1l0,0
		C350.7,38.1,350.7,38.1,350.7,38L350.7,38L350.7,38L350.7,38z M351,38L351,38L351,38l-0.1,0.1l0,0c0,0,0,0.1-0.1,0.1l0,0
		c0,0,0,0.1-0.1,0.1c0,0,0,0.1-0.1,0.1c0,0,0,0.1-0.1,0.1l0,0l-0.1,0.1H350l-0.9-0.4h-0.1v-0.1v-0.1V38l0,0v-0.1l0,0c0,0,0,0,0-0.1
		l0,0c0,0,0-0.1,0.1-0.1l0,0c0,0,0-0.1,0.1-0.1l0,0c0,0,0-0.1,0.1-0.1l0.1-0.1l0.1-0.1c0,0,0.1,0,0.1-0.1h0.1h0.1l0,0
		c0.1,0,0.1,0.1,0.3,0.1c0.1,0,0.1,0.1,0.1,0.1c0,0.1,0.1,0.1,0.1,0.3C351.2,37.7,351.2,37.8,351,38L351,38z M353.8,43.7L353.8,43.7
		L353.8,43.7c0.1-0.1,0.1-0.3,0.1-0.4c0-0.1,0-0.3,0-0.4s0-0.3,0-0.4l0,0c0-0.1,0-0.3,0-0.4c0-0.1,0-0.3-0.1-0.4
		c0-0.1-0.1-0.3-0.1-0.4c-0.1-0.3-0.3-0.6-0.3-0.9c0-0.1-0.1-0.3-0.3-0.4c-0.1-0.1-0.1-0.3-0.3-0.3c-0.1-0.1-0.1-0.1-0.3-0.3l0,0
		c-0.1,0-0.1-0.1-0.3-0.1H352h-0.1c0,0-0.1,0-0.1,0.1c0,0,0,0.1-0.1,0.1l0,0c0,0,0,0,0,0.1c0,0,0,0,0,0.1c0,0,0,0,0,0.1l0,0l0,0
		c0,0.1,0.1,0.1,0.1,0.3s0.1,0.1,0.1,0.3c0,0.1,0.1,0.1,0.1,0.3c0,0.1,0,0.1,0.1,0.3c0,0.1,0,0.1,0.1,0.3c0,0.1,0,0.1,0.1,0.3
		c0,0.1,0,0.1,0.1,0.3c0,0.1,0,0.1,0.1,0.3l0,0c0,0.1,0,0.1,0,0.3c0,0.1,0,0.1,0,0.3c0,0.1,0,0.1,0,0.3c0,0.1,0,0.1,0,0.3
		c0,0.1,0,0.1,0,0.3c0,0.1,0,0.1,0,0.3c0,0,0,0.1,0.1,0.1l0,0l0.1,0.1l0,0c0,0,0,0,0.1,0h0.1h0.1h0.1h0.1l0,0
		C353.7,43.7,353.7,43.7,353.8,43.7L353.8,43.7C353.7,43.7,353.8,43.7,353.8,43.7z M354.1,43.7c0,0,0,0.1-0.1,0.1l-0.1,0.1l0,0h-0.1
		l0,0h-0.1h-0.1h-0.1h-0.1h-0.1l0,0c-0.1,0-0.1-0.1-0.3-0.1l0,0c-0.1-0.1-0.1-0.1-0.1-0.3c0-0.1,0-0.1,0-0.3c0-0.1,0-0.1,0-0.3
		c0-0.1,0-0.1,0-0.3s0-0.1,0-0.3c0-0.1,0-0.1,0-0.3c0-0.1,0-0.1,0-0.3c0-0.1,0-0.1-0.1-0.3c0-0.1,0-0.1-0.1-0.3c0-0.1,0-0.1-0.1-0.3
		c0-0.1,0-0.1-0.1-0.3c0-0.1,0-0.1-0.1-0.3c0-0.1-0.1-0.1-0.1-0.3c0-0.1-0.1-0.1-0.1-0.3c0-0.1-0.1-0.1-0.1-0.3l0,0l0,0v-0.1l0,0
		v-0.1V39v-0.1l0,0c0-0.1,0.1-0.1,0.1-0.1l0.1-0.1c0.1,0,0.1-0.1,0.3,0c0.1,0,0.1,0,0.3,0c0.1,0,0.3,0.1,0.3,0.1l0,0
		c0.1,0.1,0.1,0.1,0.3,0.3c0.1,0.1,0.1,0.3,0.3,0.4c0.1,0.1,0.1,0.3,0.3,0.4c0.1,0.3,0.3,0.6,0.4,1c0,0.1,0.1,0.3,0.1,0.6
		c0,0.1,0,0.3,0.1,0.6c0,0.1,0,0.3,0,0.4c0,0.1,0,0.3,0,0.4c0,0.1,0,0.3,0,0.4C354.1,43.6,354.1,43.7,354.1,43.7L354.1,43.7z
		 M354.9,44.8c-0.1,0.3-0.1,0.6-0.3,0.9c-0.1,0.3-0.3,0.6-0.4,0.9c-0.1,0.3-0.3,0.6-0.6,0.7c-0.1,0.3-0.4,0.4-0.6,0.7
		c-0.1,0.1-0.4,0.4-0.7,0.6c-0.3,0.1-0.4,0.3-0.7,0.4c-0.3,0.1-0.6,0.3-0.9,0.4c-0.3,0.1-0.6,0.1-0.9,0.3c-0.3,0.1-0.6,0.1-0.9,0.1
		c-0.3,0-0.6,0-0.9,0c-0.3,0-0.6,0-0.9,0c-0.3,0-0.6-0.1-0.9-0.1c-0.3-0.1-0.6-0.1-0.9-0.3c-0.3-0.1-0.6-0.3-0.9-0.4
		c-0.3-0.1-0.4-0.3-0.7-0.6c-0.3-0.1-0.4-0.4-0.7-0.6c-0.1-0.1-0.4-0.4-0.6-0.7c-0.1-0.3-0.3-0.4-0.4-0.7c-0.1-0.3-0.3-0.6-0.4-0.9
		c-0.1-0.3-0.1-0.6-0.3-0.9c-0.1-0.3-0.1-0.6-0.1-0.9c0-0.3,0-0.6,0-0.9c0-0.3,0-0.6,0-0.9c0-0.3,0.1-0.6,0.1-0.9
		c0.1-0.3,0.1-0.6,0.3-0.9c0.1-0.3,0.3-0.6,0.4-0.9c0.1-0.3,0.3-0.6,0.6-0.7c0.1-0.3,0.4-0.4,0.6-0.7c0.3-0.1,0.4-0.4,0.7-0.6
		c0.3-0.1,0.4-0.3,0.7-0.4c0.3-0.1,0.6-0.3,0.9-0.4c0.3-0.1,0.6-0.1,0.9-0.3c0.3-0.1,0.6-0.1,0.9-0.1c0.3,0,0.6,0,0.9,0
		c0.3,0,0.6,0,0.9,0c0.3,0,0.6,0.1,0.9,0.1c0.3,0.1,0.6,0.1,0.9,0.3c0.3,0.1,0.6,0.3,0.9,0.4c0.3,0.1,0.6,0.3,0.7,0.6
		c0.3,0.1,0.4,0.4,0.7,0.6c0.1,0.3,0.4,0.4,0.6,0.7c0.3,0.4,0.6,1,0.9,1.6c0.1,0.6,0.3,1.2,0.4,1.8c0,0.3,0,0.6,0,0.9
		c0,0.3,0,0.6-0.1,0.9C355,44,355,44.5,354.9,44.8z M354.3,45.5c0.1-0.3,0.3-0.6,0.3-0.9c0.1-0.3,0.1-0.6,0.1-0.9c0-0.3,0-0.6,0-0.9
		c0-0.3,0-0.6,0-0.9c0-0.6-0.1-1.2-0.4-1.6c-0.1-0.6-0.4-1-0.9-1.5c-0.1-0.3-0.3-0.4-0.6-0.7c-0.1-0.1-0.4-0.4-0.6-0.6
		c-0.3-0.1-0.4-0.3-0.7-0.6c-0.3-0.1-0.6-0.3-0.9-0.4c-0.3-0.1-0.6-0.3-0.9-0.3c-0.3-0.1-0.6-0.1-0.9-0.1c-0.3,0-0.6,0-0.9,0
		s-0.6,0-0.9,0s-0.6,0.1-0.9,0.1c-0.3,0-0.6,0.1-0.9,0.3c-0.3,0.1-0.6,0.3-0.7,0.4c-0.3,0.1-0.4,0.3-0.7,0.4s-0.4,0.3-0.7,0.6
		c-0.1,0.1-0.4,0.4-0.6,0.7c-0.1,0.3-0.3,0.4-0.6,0.7c-0.1,0.3-0.3,0.6-0.4,0.9c-0.1,0.3-0.3,0.6-0.3,0.9c-0.1,0.3-0.1,0.6-0.1,0.9
		c0,0.3,0,0.6,0,0.9c0,0.3,0,0.6,0,0.9c0,0.3,0.1,0.6,0.1,0.9c0.1,0.3,0.1,0.6,0.3,0.9c0.1,0.3,0.3,0.6,0.4,0.7
		c0.1,0.3,0.3,0.4,0.4,0.7s0.3,0.4,0.6,0.7c0.1,0.1,0.4,0.4,0.6,0.6c0.3,0.1,0.4,0.3,0.7,0.4c0.3,0.1,0.4,0.3,0.7,0.4
		c0.3,0.1,0.6,0.3,0.9,0.3c0.3,0.1,0.6,0.1,0.9,0.1c0.3,0,0.6,0,0.9,0c0.3,0,0.6,0,0.9,0c0.3,0,0.6-0.1,0.9-0.1
		c0.3,0,0.6-0.1,0.9-0.3c0.3-0.1,0.6-0.3,0.7-0.4c0.3-0.1,0.4-0.3,0.7-0.4c0.3-0.1,0.4-0.3,0.7-0.6c0.1-0.1,0.4-0.4,0.6-0.6
		c0.1-0.3,0.3-0.4,0.6-0.7C354,46.1,354.1,45.8,354.3,45.5z M353.7,47.1c0.4-0.4,0.7-1,1-1.8c0.1-0.3,0.3-0.6,0.3-0.9
		c0.1-0.3,0.1-0.6,0.1-0.9c0-0.3,0-0.6,0-0.9c0-0.3,0-0.6,0-0.9c0-0.3-0.1-0.6-0.1-0.9c-0.1-0.3-0.1-0.6-0.3-0.9
		c-0.1-0.3-0.3-0.6-0.4-0.9c-0.1-0.3-0.3-0.6-0.4-0.7c-0.1-0.3-0.4-0.4-0.6-0.7c-0.1-0.3-0.4-0.4-0.7-0.6s-0.4-0.4-0.7-0.6
		c-0.3-0.1-0.6-0.3-0.9-0.4c-0.6-0.3-1.2-0.4-1.9-0.6c-0.3,0-0.6,0-0.9,0c-0.3,0-0.6,0-0.9,0.1c-0.3,0-0.6,0.1-0.9,0.1
		c-0.3,0.1-0.6,0.1-0.9,0.3c-0.3,0.1-0.6,0.3-0.9,0.4c-0.3,0.1-0.6,0.3-0.7,0.6c-0.3,0.1-0.4,0.4-0.7,0.6c-0.3,0.3-0.4,0.4-0.6,0.7
		c-0.1,0.3-0.4,0.6-0.6,0.7c-0.1,0.3-0.3,0.6-0.4,0.9c-0.1,0.3-0.3,0.6-0.3,0.9l0,0c-0.1,0.3-0.1,0.6-0.1,0.9c0,0.3,0,0.6,0,0.9
		c0,0.3,0,0.6,0,0.9l0,0c0,0.3,0.1,0.6,0.1,0.9c0.1,0.3,0.1,0.6,0.3,0.9c0.1,0.3,0.3,0.6,0.4,0.9c0.1,0.3,0.3,0.6,0.4,0.7
		c0.1,0.3,0.4,0.4,0.6,0.7c0.1,0.3,0.4,0.4,0.7,0.6c0.3,0.1,0.4,0.4,0.7,0.6c0.3,0.1,0.6,0.3,0.9,0.4c0.3,0.1,0.6,0.3,0.9,0.3
		c0.3,0.1,0.6,0.1,0.9,0.1l0,0c0.3,0,0.6,0,0.9,0s0.6,0,0.9,0c0.3,0,0.6-0.1,0.9-0.1c0.3-0.1,0.6-0.1,0.9-0.3
		c0.3-0.1,0.6-0.3,0.9-0.4c0.3-0.1,0.6-0.3,0.7-0.4c0.3-0.1,0.4-0.4,0.7-0.6C353.2,47.7,353.5,47.4,353.7,47.1z M355,45.7
		c-0.3,0.6-0.6,1.2-1,1.8c-0.1,0.3-0.4,0.4-0.6,0.7c-0.3,0.3-0.4,0.4-0.7,0.6c-0.3,0.1-0.6,0.4-0.7,0.6c-0.3,0.1-0.6,0.3-0.9,0.4
		c-0.3,0.1-0.6,0.3-0.9,0.3c-0.3,0.1-0.6,0.1-0.9,0.1c-0.3,0-0.6,0-1,0c-0.3,0-0.6,0-1,0l0,0c-0.3,0-0.7-0.1-1-0.1
		c-0.3-0.1-0.6-0.1-1-0.3c-0.3-0.1-0.6-0.3-0.9-0.4c-0.3-0.1-0.6-0.3-0.7-0.6c-0.3-0.1-0.4-0.4-0.7-0.6c-0.1-0.3-0.4-0.4-0.6-0.7
		c-0.1-0.3-0.3-0.6-0.4-0.7c-0.1-0.3-0.3-0.6-0.4-0.9c-0.1-0.3-0.1-0.6-0.3-0.9c-0.1-0.3-0.1-0.6-0.1-0.9l0,0c0-0.3,0-0.6,0-0.9
		c0-0.3,0-0.6,0-1c0-0.3,0.1-0.6,0.1-1l0,0c0.1-0.3,0.1-0.6,0.3-0.9c0.1-0.3,0.3-0.6,0.4-0.9c0.1-0.3,0.3-0.6,0.6-0.9
		c0.1-0.3,0.4-0.4,0.6-0.7c0.3-0.3,0.4-0.4,0.7-0.6s0.6-0.4,0.7-0.6c0.3-0.1,0.6-0.3,0.9-0.4c0.3-0.1,0.6-0.3,0.9-0.3
		c0.3-0.1,0.6-0.1,0.9-0.1c0.3,0,0.6,0,1-0.1c0.3,0,0.6,0,1,0c0.6,0.1,1.3,0.3,1.9,0.6c0.3,0.1,0.6,0.3,0.9,0.4
		c0.3,0.1,0.6,0.3,0.9,0.6c0.3,0.1,0.4,0.4,0.7,0.6c0.3,0.3,0.4,0.4,0.6,0.7c0.1,0.3,0.3,0.6,0.6,0.7c0.1,0.3,0.3,0.6,0.4,0.9
		c0.1,0.3,0.3,0.6,0.3,0.9c0.1,0.3,0.1,0.6,0.1,0.9c0,0.3,0,0.6,0,1c0,0.3,0,0.6,0,1c0,0.3-0.1,0.6-0.1,1
		C355.1,44.9,355.1,45.2,355,45.7z"/>
	<path class="st13" d="M191.4,21.1l-10.6,27c-0.4,1-0.9,1.9-1.6,2.5l1.2,11.1c0.1,1-0.3,1.6-0.9,0.3l-4.3-10l0,0l-4.3,10
		c-0.6,1.3-1,0.7-0.9-0.3l1.2-12c-0.3-0.4-0.6-1-0.9-1.8l-10.6-27c-0.4-1.2-0.6-2.2-0.4-3.3c0.3-1.5,1-2.7,2.2-3.4
		c1.2-0.9,2.7-1.2,4-0.9c1.8,0.3,3.3,1.5,4.1,3.4l5.9,15.7l5.9-15.7c1.3-2.7,3.3-3.8,5.9-3.4c1.5,0.3,2.7,0.9,3.4,2.1
		c0.9,1.2,1.2,2.7,1,4.3C191.7,20.4,191.6,20.8,191.4,21.1 M175.4,46c0.9,0,1.5,0.7,1.5,1.5c0,0.9-0.7,1.5-1.5,1.5
		c-0.9,0-1.5-0.7-1.5-1.5S174.6,46,175.4,46z"/>
	<path class="st14" d="M312.1,24.1c-0.4,0.1-0.9,0.1-1.2,0.3c-1.9,0.7-3.4,2.1-4.1,4.1s-0.9,4.4-0.4,7.1c0.1,0.9,0.4,1.8,0.7,2.5
		c0.9,2.2,2.1,3.8,3.7,4.9c1.6,1,3.4,1.3,5.5,1c0.4-0.1,0.9-0.1,1.3-0.3c1.9-0.7,3.4-2.1,4.1-4.1c0.7-2.1,0.9-4.4,0.4-7.1
		c-0.1-0.9-0.4-1.6-0.7-2.4c-0.9-2.2-2.1-4-3.7-5C316,24.1,314.2,23.8,312.1,24.1 M313.9,56.3c-1.6-0.1-3.1-0.4-4.6-0.9
		c-0.1,0.1-0.3,0.3-0.6,0.6c0,0-0.6,0.3-0.6,0.6c-0.1,0.3-0.6,0.1-1,0c0.6-2.5-3.4-3.1-4-1.5c-0.9-0.4-0.9-1.2-1.5-1.8
		c-1.8-0.1-1.5-2.2-3.7-2.4c-0.4,0-0.6,0.7-1.2,0.4c0.1-0.4,0.1-0.7,0-1c-0.4-0.1-0.4,0.3-0.6,0.4c-0.1-0.3,0.6-1.2,0.6-0.6
		c0.3-1-3.1-2.8-3.8-1.5c-1-0.7,0.6-1.2,0.9-1.8c0.6-1.2-0.4-2.2-0.9-3.3c-1.5-0.6-2.5-0.6-3.5,0.1c-0.3-1.5,2.1-1,2.8-1.8
		c0.1-2.2-1.3-4.3-4.1-4.3c0.4-1.5,2.1-0.7,2.8-1.5c1.2-3.1-1.5-4.1-1.2-6.8c-0.6-0.3-1.3-0.3-1.5-0.7c1,0.6,2.5,0.7,3.5,0.7
		c1.3-0.9-0.9-3.1-0.7-4.1c1-0.6,3.3,0.7,3.3-1.8c1.5-0.4,0.6-2.1-0.3-2.5c0.1-1,0.7-1,1.2-1.3c3,0.6,3.1-2.8,4.6-5
		c0.9-0.4,1.9,0.4,2.8,0.3c0.3-2.4,4.1,0.9,4.9-1c0.7-0.1,1.5-1.8,2.1-2.2c0.6,0.3,1,0.3,1.8,0.6c0.3,0,0.4-0.4,0.6-0.6
		c0.4,0.1,0,0.7,0.3,0.9c0.6,0.3,0.9-0.1,1.5,0.1c0.1-0.1-0.1-0.9,0-1.3c-1.3-0.1-1.9,0-3-0.3c-0.4-0.6-0.9-1-1.8-0.9
		c0-0.3,0.1-0.4,0.1-0.7c-0.7-1-0.4-2.7-1.3-3.7c0.3-0.1,0.3,0.1,0.6,0.1c0.3-0.3,0.4-1,0.9-1.3c-0.4-1.9,0.7-3.1,1.8-4.1
		c1.6-0.7,3.5,0.6,4.7,1.8c-0.1,0.7,0,1.5,0.1,2.1c-0.1,0.3-0.3,0.6-0.4,0.9c0,0.3,0.1,0.3,0,0.6c1.2,0.7,0.4,1.9,1,3
		c2.2-0.6,3.7,1.5,4.6,2.7c-0.4,0.6-0.4,1.2-0.1,1.6c-0.3,0.3-0.6,0.6-0.4,0.9c3.8,0.9,7.2,2.8,9.9,5.8c3.3,3.5,5,8,5.5,13.2
		c0.1,1.3,0.1,2.5,0,3.8c-0.3,3.5-1.3,6.8-2.8,9.6h0.4v1.3c0.1,0.9,0.9,0.7,1.5,0.7c0.3,0.4,0,0.7,0,1.2c0.1,0.9,1.3,0.4,1.6,1.2
		c-0.4,0.1-0.7,0.1-1,0.4c-0.1,1,0.3,1.5,0.6,1.9c-0.3,0.4-0.4,1.5,0,1.9c-0.4,0.4-0.6,0.9-0.9,1.5c-0.6,0.1-1.2,0.4-1.5,0.9
		c0.1,0.7-0.4,1.5-1,1.9c-0.3-0.1-0.3-0.4-0.7-0.4c-0.3,0.6-1,0.9-1.5,1.3c-0.7-0.3-1.5-0.4-2.2-0.4c-0.4,0.1,0,0.9-0.6,1
		c-0.4-0.1-0.1-0.7-0.3-1.2c-0.3-0.1-0.7-0.1-1-0.1c-0.4,0.1-0.3,0.7-0.7,0.9c0-0.1-0.1,0-0.1,0.1c-0.3-0.3-0.1-0.7-0.1-1.2
		c-0.6-0.4-1-1.2-1.8-1.5c-0.6,0.1-0.4,1-1.2,1c-0.1-0.9,0.6-1,0.4-1.9c-0.6-0.1-1-0.6-1.2-1.2c-1.5,0.4-3,0.7-4.6,0.9
		C316.1,56.5,315.1,56.3,313.9,56.3z"/>
	<path class="st2" d="M330.5,32.8l0.1-1.3l0,0c0-0.1,0-0.3,0-0.6c0-0.1,0-0.4,0-0.6s0-0.4-0.1-0.6l0,0c0-0.1-0.1-0.4-0.1-0.6
		c0-0.3-0.1-0.4-0.1-0.6c-0.1-0.4-0.3-0.9-0.4-1.3c-0.1-0.4-0.3-0.9-0.6-1.3v-0.1l0,0c-0.1-0.1-0.1-0.3-0.3-0.6
		c-0.1-0.1-0.1-0.4-0.3-0.6c-0.1-0.3-0.3-0.4-0.3-0.6c-0.1-0.1-0.3-0.4-0.3-0.6c-0.1-0.1-0.3-0.3-0.4-0.6c-0.1-0.1-0.3-0.3-0.4-0.4
		c-0.1-0.1-0.3-0.3-0.4-0.4c-0.1-0.1-0.3-0.3-0.4-0.4c-0.1-0.1-0.3-0.3-0.4-0.3c-0.1-0.1-0.3-0.1-0.4-0.3c-0.1,0-0.3-0.1-0.4-0.1
		s-0.3-0.1-0.3-0.1h-0.1h-0.1l0,0l0,0l0,0c0,0-0.1,0-0.1,0.1c0,0,0,0-0.1,0.1l0,0V21v0.1c0,0,0,0,0,0.1l0,0l0,0c0,0,0,0,0,0.1
		c0,0,0,0,0,0.1l0,0l0,0l0,0l0,0l0,0l0,0c0.1,0.1,0.1,0.3,0.3,0.3c0.1,0.1,0.1,0.3,0.3,0.4c0.1,0.1,0.1,0.3,0.3,0.4
		c0.1,0.1,0.1,0.3,0.3,0.4c0.1,0.1,0.1,0.3,0.3,0.4c0.1,0.1,0.1,0.3,0.3,0.4c0.1,0.1,0.1,0.3,0.1,0.4c0,0.1,0.1,0.3,0.1,0.4
		c0.1,0.1,0.1,0.3,0.1,0.4c0,0.1,0.1,0.3,0.1,0.3c0,0.1,0.1,0.3,0.1,0.4c0,0.1,0.1,0.3,0.1,0.4l0,0l0.1,0.3l0,0l0.1,0.4l0,0l0.1,0.4
		l0.1,0.4l0,0l0,0c0,0.1,0.1,0.3,0.1,0.4c0,0.1,0.1,0.3,0.1,0.4c0,0.1,0,0.3,0.1,0.4l0,0c0,0.1,0,0.3,0,0.6c0,0.3,0,0.6,0,0.9
		c0,0.3,0,0.6,0.1,0.9c0,0.1,0,0.3,0,0.3c0,0.1,0,0.1,0,0.3l0,0c0,0.1,0,0.1,0.1,0.3c0,0.1,0,0.1,0.1,0.3c0,0,0,0,0,0.1
		c0,0,0,0,0.1,0.1l0,0c0,0,0.1,0,0.1,0.1l0,0c0,0,0.1,0,0.1,0.1h0.1h0.1l0,0h0.1h0.1h0.1h0.1h0.1l0,0h0.1l0,0c0,0,0,0,0.1,0
		C330.2,33,330.3,33,330.5,32.8L330.5,32.8L330.5,32.8C330.3,32.8,330.5,32.8,330.5,32.8 M319.5,17.7L319.5,17.7L319.5,17.7v-0.1
		l0,0c0-0.1,0-0.3,0-0.3v-0.1l0,0c0,0,0,0-0.1,0h-0.1c-0.1,0-0.1-0.1-0.3-0.1l0,0c-0.1,0-0.3-0.1-0.3-0.1l0,0l0,0l0,0l0,0
		c0,0,0,0-0.1,0.1c0,0,0,0-0.1,0.1c0,0,0,0.1-0.1,0.1c0,0,0,0.1-0.1,0.1l0,0c0,0,0,0.1-0.1,0.1c0,0.1,0,0.1-0.1,0.1
		c0,0,0,0.1-0.1,0.1l0,0l-0.1,0.3c0,0.1,0,0.1-0.1,0.3c0,0,0,0.1,0,0.3l0,0v0.1l0,0l0,0l1.2,0.3v-0.1v-0.1l0,0v-0.1
		c0-0.1,0.1-0.3,0.1-0.4c0-0.1,0.1-0.3,0.1-0.4l0,0v-0.1l0,0L319.5,17.7L319.5,17.7z"/>
</g>
</svg>
